<?xml version="1.0" encoding="UTF-8" standalone="no"?><!DOCTYPE svg PUBLIC "-//W3C//DTD SVG 1.1//EN" "http://www.w3.org/Graphics/SVG/1.1/DTD/svg11.dtd"><svg width="100%" height="100%" viewBox="0 0 2461 2712" version="1.1" xmlns="http://www.w3.org/2000/svg" xmlns:xlink="http://www.w3.org/1999/xlink" xml:space="preserve" xmlns:serif="http://www.serif.com/" style="fill-rule:evenodd;clip-rule:evenodd;stroke-linecap:round;stroke-linejoin:round;"><g id="Layer_2"><g id="vector"><path d="M1185.58,840.375c-5.666,27.708 0.5,226.083 -7.708,257.375c-8.208,31.292 -99.292,413.708 -99.292,413.708l144.875,-40.041c0,0 50.792,-111.625 69.209,-212.125c16.208,-88.459 13.875,-417.375 -107.084,-418.917Z" style="fill:#d18c65;fill-rule:nonzero;"/><path d="M1044.96,927.958l-94,0l-53.833,-204.166l94.042,0l53.791,204.166Z" style="fill-rule:nonzero;"/><rect x="1241" y="1495.67" width="1021.29" height="1021.29" style="fill:#5fc5d1;"/><circle cx="1430.12" cy="1699.46" r="102.917" style="fill:#a4a4a4;"/><path d="M1619.54,1655.33l521.791,0" style="fill:none;fill-rule:nonzero;stroke:#fff;stroke-width:8.5px;"/><path d="M1619.54,1743.54l231.333,0" style="fill:none;fill-rule:nonzero;stroke:#fff;stroke-width:8.5px;"/><path d="M1619.54,1962.21l521.791,0" style="fill:none;fill-rule:nonzero;stroke:#fff;stroke-width:8.5px;"/><path d="M1619.54,2050.42l231.333,0" style="fill:none;fill-rule:nonzero;stroke:#fff;stroke-width:8.5px;"/><path d="M1619.54,2269.04l521.791,0" style="fill:none;fill-rule:nonzero;stroke:#fff;stroke-width:8.5px;"/><path d="M1619.54,2357.25l231.333,0" style="fill:none;fill-rule:nonzero;stroke:#fff;stroke-width:8.5px;"/><circle cx="1430.12" cy="2006.29" r="102.917" style="fill:#fff;"/><circle cx="1430.12" cy="2313.17" r="102.917" style="fill:#fff;"/><path d="M265.958,2456.5l96.042,-55.292l60.75,111.25l-111.875,55.25l-44.917,-111.208Z" style="fill:#e49d75;fill-rule:nonzero;"/><path d="M970.583,2401.21l21.417,122.959l129.875,-22.084l-42.833,-139.541l-108.459,38.666Z" style="fill:#e49d75;fill-rule:nonzero;"/><path d="M1292,1421.88c-38.25,2.083 -665.875,138.375 -674.042,170.333c-67.208,262.167 316.667,812.5 344.875,829.167c30.417,-7.333 134.209,-43.5 134.209,-43.5l-23.834,-366.958l218.792,-589.042Z" style="fill:#5fc5d1;fill-rule:nonzero;"/><path d="M339.167,2584.96l-76.667,-160.25l-208.625,-199.625l-53.875,29.667l206.542,395.833l132.625,-65.625Z" style="fill-rule:nonzero;"/><path d="M1131.71,2472.62l-174.916,31.167l-248.084,147.791l14.292,59.875l436.583,-93.5l-27.875,-145.333Z" style="fill-rule:nonzero;"/><path d="M1776.17,1259.29c24.416,19.541 50,107.625 52.958,137.5c31.958,346.583 -538.5,550.666 -617.5,584.916c-75,62.709 -729.167,544.959 -769.042,556.375c-39.875,11.417 -105.083,-141.666 -99.375,-162.125c5.709,-20.458 964.5,-984.291 964.5,-984.291l468.459,-132.375Z" style="fill:#6bd5e1;fill-rule:nonzero;"/><path d="M1317.46,635.417c-80.708,-39.875 -155.333,178.833 -148.166,203.875c7.166,25.041 81.25,32.208 100,32.208c18.75,0 48.166,-236.083 48.166,-236.083Z" style="fill:#ffc78e;fill-rule:nonzero;"/><path d="M1472.21,509.958c294.584,0 322.375,702.292 319.042,750.209c-29.75,97.666 -386.583,215 -496.417,150.791c-174.291,-408.666 -94,-901 177.375,-901Z" style="fill:#ffd98e;fill-rule:nonzero;"/><path d="M1766.08,856.208c16.459,28.084 51.875,211.084 48.334,234.959c-3.542,23.875 -58.334,84.125 -77.834,85.458c-277.25,18.833 -577.958,-91.958 -634.166,-123.083c-117.584,-9.375 -187.167,-51.834 -187.167,-113.917c0,-36.667 20.333,-63.083 31.542,-63.083c21.25,0 59,36.625 63.583,47.333c-9.167,-18.833 -37.917,-53.417 -14.25,-53.417c6.583,0 60,74.667 89,92.792c29,18.125 447.542,33.333 531.458,63.833c-10.708,-21.333 -40.708,-98.666 -41.208,-109.833c-0.5,-11.167 190.708,-61.042 190.708,-61.042Z" style="fill:#e49d75;fill-rule:nonzero;"/><path d="M986.176,416.36c-3.443,-17.322 -20.301,-28.591 -37.624,-25.149l-156.767,31.155c-17.323,3.442 -28.592,20.301 -25.149,37.624l31.154,156.767c3.443,17.323 20.302,28.591 37.624,25.149l156.768,-31.155c17.322,-3.442 28.591,-20.301 25.149,-37.623l-31.155,-156.768Z" style="fill:#5fc5d1;"/><path d="M901.25,492.25l-5,-25c-1.746,-8.922 -9.637,-15.418 -18.728,-15.418c-1.267,0 -2.53,0.126 -3.772,0.376l-13.875,61.375l13.708,68.875l70.834,-14.041c6.234,-1.154 10.709,-6.792 10.416,-13.125l-2.541,-58.334c-0.335,-7.004 -6.371,-12.494 -13.375,-12.166c-0.685,0.042 -1.367,0.125 -2.042,0.25l-35.625,7.208Zm-27.667,90.125l-18.791,3.75c-0.82,0.163 -1.654,0.246 -2.49,0.246c-6.069,0 -11.338,-4.333 -12.51,-10.288l-8.75,-43.833c-1.37,-6.88 3.162,-13.669 10.041,-15.042l18.792,-3.708" style="fill:none;fill-rule:nonzero;stroke:#fff;stroke-width:8.5px;"/><path d="M924.083,677.75l19.5,-57.417l-59.5,11.834l40,45.583Z" style="fill:#5fc5d1;fill-rule:nonzero;"/><path d="M1556.92,565.917c127.541,-46.75 228.375,247.916 224.25,285.25c-4.125,37.333 -208.334,102.708 -231.334,89.208c-23,-13.5 -119.333,-328.125 7.084,-374.458Z" style="fill:#ffe4ad;fill-rule:nonzero;"/><path d="M1480.54,382.167c-1.375,17.708 9.416,116.666 26.291,148.958c-7.458,14.667 -84.125,57.292 -120.833,48.167c-5,-27.417 -18.292,-101.042 -29.167,-123.459c19.625,-10.25 123.709,-73.666 123.709,-73.666Z" style="fill:#d18c65;fill-rule:nonzero;"/><path d="M1278.81,62.842c89.221,-23.673 185.746,47.896 215.417,159.722c29.67,111.825 -18.676,221.833 -107.897,245.506c-89.22,23.673 -185.745,-47.895 -215.416,-159.721c-29.671,-111.826 18.676,-221.834 107.896,-245.507Z" style="fill:#e49d75;"/><path d="M1411.12,262.708c-9.25,0.5 -44.542,-17.5 -52.375,-71.5c-25.458,-4.166 -137.708,7.792 -196.542,54.167c-21.791,8.333 -39.458,15.292 -72.416,15.292c-15.625,0 -28.875,-16.334 -28.875,-27.542c0,-30.875 13.25,-60.792 51.958,-62.792c-32.583,-0.708 -62.792,-20.833 -62.792,-35.666c0,-19.709 44.792,-80.167 122.917,-53.667c-18.333,-13.25 -39.042,-26.167 -39.042,-38.708c0,-21.459 30.875,-42.292 84.875,-42.292c83.542,0 174.584,34.625 194.25,59.417c9.167,-4.75 20.834,-13.584 43.167,-13.584c55.667,0 74.333,180.334 50.25,240.792c-5.964,3.831 -12.639,6.425 -19.625,7.625" style="fill:#fd8369;fill-rule:nonzero;"/><path d="M1409.46,266.667c5.773,-16.431 21.385,-27.493 38.8,-27.493c22.561,0 41.125,18.564 41.125,41.125c0,22.56 -18.564,41.125 -41.125,41.125c-6.224,0 -12.368,-1.413 -17.966,-4.132" style="fill:#e49d75;fill-rule:nonzero;"/></g></g></svg>